PathFileType	4	(X/Y/Z)	13_2_12_p0_0-462_filt_butterworth.trc
DataRate	CameraRate	NumFrames	NumMarkers	Units	OrigDataRate	OrigDataStartFrame	OrigNumFrames
58.0	58.0	6	27	m	58.0	346	462
Frame#	Time	RHip			RKnee			RAnkle			RBigToe			RSmallToe			RHeel			LHip			LKnee			LAnkle			LBigToe			LSmallToe			LHeel			Neck			Head			Nose			RShoulder			RElbow			RWrist			RThumb			RIndex			RPinky			LShoulder			LElbow			LWrist			LThumb			LIndex			LPinky			
		X1	Y1	Z1	X2	Y2	Z2	X3	Y3	Z3	X4	Y4	Z4	X5	Y5	Z5	X6	Y6	Z6	X7	Y7	Z7	X8	Y8	Z8	X9	Y9	Z9	X10	Y10	Z10	X11	Y11	Z11	X12	Y12	Z12	X13	Y13	Z13	X14	Y14	Z14	X15	Y15	Z15	X16	Y16	Z16	X17	Y17	Z17	X18	Y18	Z18	X19	Y19	Z19	X20	Y20	Z20	X21	Y21	Z21	X22	Y22	Z22	X23	Y23	Z23	X24	Y24	Z24	X25	Y25	Z25	X26	Y26	Z26	X27	Y27	Z27	
346	5.965517241379311	0.30313630681119325	0.8544500142682122	0.6436397352037478	0.3065403684839556	1.0759294001451654	1.0306199046703428	0.28434081420517365	1.2773117574108033	1.392814065113561	0.25964490847209	1.0985655672231074	1.458644853062591	0.3242718318070446	1.1179861370334394	1.4495672717006753	0.25968470191183923	1.3772366879172815	1.4395724885972614	0.09934539124931013	0.8361892547210145	0.6403707133227832	0.08688504403995631	1.06379151121921	1.0314821778371774	0.11227507901564775	1.3037095010054713	1.4078505462708955	0.12452741819746041	1.0877689344195214	1.4616608874112114	0.07012047137234605	1.1105650024870768	1.4509164574272861	0.12713485256601967	1.3762001125537588	1.4341954012992726	0.18892492584322548	0.6430952014578255	0.12182632275296387	0.20673577573695687	0.5121491314784127	-0.06559915417479527	0.21899983627114514	0.4963428840860936	0.06013645135709711	0.3223516281814191	0.6911699992640498	0.1911066078056572	0.3790241194465677	0.7989057698970738	0.41999680184586297	0.25642655021502764	0.646464402482405	0.5340788957493965	0.18563744710578917	0.6208370608130267	0.5728212972947606	0.1700079299698624	0.6503360036446153	0.5953365603868992	0.1709324558318858	0.6601699329503483	0.6241810050040362	0.035505127911124396	0.7205666564607909	0.18039450296186224	0.028500095935083042	0.7832159825744238	0.44162333865943015	0.146962532744187	0.6731970771959583	0.5749839050595568	0.20899384410678545	0.6077026902990772	0.5952464832381211	0.21541732215402015	0.6154154891958722	0.6266750330728605	0.18616332270338606	0.6682252962074332	0.6503028005505206
347	5.982758620689655	0.3015399235656164	0.8601537143886705	0.6434347631872622	0.3064603681183806	1.0759997675525461	1.030680906211307	0.28433818250742415	1.27725205673939	1.3927415509136196	0.25966740493475504	1.098432226969573	1.4585952573493632	0.32434328105092886	1.1178700827605148	1.4495649502654242	0.25933076255360715	1.3761196729629679	1.438048634256143	0.09934511900032912	0.8362050838383006	0.6403579820435711	0.08686879238086487	1.0638106220780106	1.0315845802864123	0.1122602181523546	1.3039486213554083	1.4078819120821962	0.12451181511820822	1.0878536157418777	1.4617169893414128	0.07054131581255416	1.1089481043376084	1.4509407273326471	0.12702753019519536	1.3759639338900682	1.4342391297820676	0.1889342624986358	0.6430532685626171	0.12188542328968023	0.20678195872067828	0.5120472323413552	-0.06557451829180647	0.21997704274443242	0.49333598452233457	0.0610377793108513	0.3229347829333112	0.6895610826338794	0.19104971618544536	0.3789413713290528	0.7985635754162287	0.4195700885693103	0.25647614215048486	0.646495613157062	0.5340809492118709	0.18727458193219715	0.6170138442129779	0.573472935206369	0.1700580204044449	0.6499823309055024	0.594186263563201	0.171653030006764	0.6607991860951821	0.6248720985175763	0.03554009301309737	0.7205728306606152	0.18037926452801367	0.02853339786382478	0.7832611512700185	0.44160162983870577	0.14924992736343498	0.665397755096673	0.5744233784264609	0.2098608694184546	0.6023460092482102	0.5953867847538664	0.21571952812515854	0.6103729247135955	0.6240153911087023	0.18749639258114878	0.6638171946911454	0.6486510707870108
348	6.0	0.3002815254144333	0.8643969562515356	0.6428234416133893	0.30639538629988916	1.076023575655986	1.0306920442898388	0.28433889849765515	1.2771866734918271	1.3927115749904104	0.25963082351728073	1.0983529907239036	1.458591307554087	0.3244735159262645	1.1178108504345756	1.4495812899276048	0.25914756160704544	1.3757165740816453	1.437868541951176	0.09937128200203679	0.8362305003430408	0.6403501453375937	0.08686597312851256	1.0638153578866596	1.0316436900670205	0.11224161469159971	1.3041308418501094	1.407912591989184	0.12439562113438589	1.0883194759579107	1.4618953115642879	0.07048005999491137	1.1090500440632085	1.4510022812376033	0.12689066798358734	1.375726434870996	1.4343143141628032	0.18893153981590574	0.6430180031698723	0.12194369938923857	0.20684678241582205	0.5121428050107582	-0.06524976151165064	0.2203457108809882	0.4920959909908389	0.061491524307160275	0.32310408802584123	0.6859571496624761	0.19107359507896146	0.3787716160890805	0.7976556192087338	0.41824277198595405	0.2564997467497765	0.6465495648330956	0.5340959707494892	0.18944489991725938	0.61411406374293	0.5745931134488608	0.1701245994059151	0.6497351141288678	0.5944911635107434	0.17193164647014292	0.6617913922272011	0.6264552423532246	0.03557428057306731	0.7206107130430489	0.18036130230919295	0.02855963334618497	0.7832980011858919	0.44158435482940184	0.15110450550891089	0.6588649072591009	0.5734941704335438	0.21105618000751836	0.5974612786234512	0.595587476078516	0.21554108650654388	0.6062071638917065	0.620559392525876	0.18928651572991614	0.658363264007773	0.6464751237970088
349	6.017241379310345	0.2997406361505885	0.8658819609703532	0.6416707647668173	0.30638135968848423	1.0760244682354478	1.0306784043256731	0.2843243192489293	1.2772252493732588	1.39272105529789	0.25955623656329097	1.0983918836729973	1.4586157488805085	0.324480743008853	1.117769429294109	1.4496023787424033	0.25920752028501964	1.3757038404546904	1.4391579375193382	0.09940279638620889	0.8362134601728681	0.6403521114748332	0.08686844219581569	1.063820723447569	1.0316521613645238	0.11223049967631128	1.3042158289342274	1.4079279279633559	0.12432854968996292	1.0886290345018885	1.462067098373235	0.07028935928133714	1.10967070907239	1.4511539427402804	0.1268234773592892	1.3755343623606673	1.4343225847443037	0.18893093753285087	0.6429947945173711	0.12197007766834314	0.20694649476420512	0.5126224517526943	-0.06445825102866416	0.22065092689181756	0.49090588935019086	0.06192101280044218	0.3222391129189809	0.6813167730339506	0.19116551117209155	0.37858573443812565	0.796361812256215	0.4160762098990195	0.25649936730447825	0.6466118126765339	0.5341279415854505	0.19274431149424046	0.6118657636176161	0.5766391883965829	0.17017878070556744	0.6497098792145382	0.5962646250385517	0.17200309854928553	0.6625808908878088	0.6279830571140343	0.035585139219631835	0.7206475333060972	0.18034907376017514	0.02856985268758665	0.7833115664524408	0.4415793072114779	0.1521557235224107	0.655171120900634	0.5727516282958766	0.21200894548960653	0.5944012817965628	0.5956748805834332	0.21528514585858044	0.6043088974911622	0.618185821646801	0.1910006399317548	0.6544889431203151	0.6447999053306528
350	6.0344827586206895	0.2997813415312727	0.8653486953182348	0.6403339705360508	0.3063917615106788	1.0760383754464589	1.0306561045719025	0.2842627300272227	1.2775131875985164	1.3927622836009839	0.2594677859070632	1.0987002147705383	1.4587323068006504	0.32395727051630124	1.1176080124538532	1.4496188774695282	0.2594783239165564	1.3757020945476905	1.4415050318484224	0.0994128335855804	0.8361179482545433	0.6403386049923231	0.08685547825084679	1.0638422310948172	1.0316267141301276	0.11223105337782857	1.3042321454630799	1.4079215056116916	0.12431439393670773	1.088728767739419	1.4621624725023457	0.07016205059914166	1.110153528470996	1.4513528712816983	0.12686722341191256	1.3754366793726773	1.434256983411181	0.18893771338996804	0.6429899064495712	0.12196151178756898	0.20706518875508528	0.5133485617111847	-0.06343022744632815	0.2215847958861341	0.48805544038200593	0.06276543082658413	0.3204769035402618	0.6776218483680967	0.19122231791177974	0.3784894404964556	0.7952594506952688	0.41395830388063454	0.2564851413838131	0.6466815369936847	0.534166037130915	0.1968227000462346	0.6086701033348177	0.5790906133814542	0.17021816923625643	0.6498161362249647	0.5984567945793985	0.17202157460179596	0.6627759907893999	0.6287173497417767	0.035554323398615445	0.7206409406592219	0.18034475987301174	0.02856952634772796	0.7833113688363371	0.4415837535678502	0.15246828619485686	0.6542072139820767	0.5724653666375161	0.21254724176383016	0.5934837049069555	0.595679203460572	0.2152520113383165	0.6040864116759197	0.6176754593747074	0.19254406861202084	0.6531499714857176	0.6440712419583193
351	6.051724137931035	0.3003358635097269	0.8631506701259604	0.639458225183847	0.306385081481439	1.0760832241023264	1.0306402146029743	0.28415107600863354	1.2780334883691251	1.3928348754718445	0.25933107426463087	1.0993255335085343	1.4592078933803738	0.32258436079054315	1.1173044487475647	1.4496313020981253	0.2597415835012822	1.3756253213370084	1.4435977380590508	0.09940573211877735	0.835945529907607	0.6401906114452843	0.08681959961482193	1.063872444339119	1.0316020466635278	0.11223958035085728	1.3042330536126467	1.4079111170227026	0.12432665937106724	1.088684205591702	1.462136469862613	0.07014999271711618	1.1102019411126203	1.4514974608996394	0.12696231832713423	1.375440600733158	1.4342113643776253	0.18895082690960802	0.6429965447724123	0.1219435372856831	0.2071561678732521	0.5139206114338778	-0.0626654021040268	0.22330789479573293	0.484154064525668	0.06385430879937375	0.3186414535403833	0.6758255585044001	0.19091557764082576	0.3784825065735818	0.7947120630137742	0.41265059256717307	0.25646572760187314	0.6467414190807185	0.5341892169821553	0.2005469725730668	0.604601915428644	0.581053612576924	0.17026714772860194	0.6498116152308744	0.599793242782099	0.17204475453128298	0.6625264939744226	0.6288127991637887	0.035490975912735805	0.7205789637796873	0.1803512860792423	0.02856735328923198	0.7833078456690531	0.4415921836092634	0.15243074673563123	0.6545548123214644	0.5724864111115756	0.2131169877287453	0.593439156843787	0.5958675318539745	0.21576108988861797	0.6044577183542416	0.6186460339117408	0.19401430358044758	0.6532290384167458	0.644007811711756
